<svg width="74" height="82" viewBox="0 0 74 82" fill="none" xmlns="http://www.w3.org/2000/svg">
<path d="M36.6949 78.0193C36.4615 78.0193 36.228 77.9872 35.9946 77.923L17.3202 72.1144C16.2864 71.7935 15.6528 70.8307 15.8195 69.8037C16.253 66.6908 16.6532 62.8719 16.5865 61.6845C15.8862 60.6896 15.1859 59.3738 14.2189 57.3521C11.8179 52.2815 9.88371 43.0069 9.35016 40.2791C8.44978 35.6899 8.28305 33.7965 8.3164 31.9673V31.7747C8.34975 29.8171 8.44979 23.9122 13.8187 23.3666C13.9854 23.3345 14.1522 23.3345 14.3522 23.3345C18.3206 23.3345 20.0546 27.6028 20.855 30.9403C21.2885 28.0841 21.7887 26.5116 22.3222 24.8749C22.489 24.3615 22.6557 23.8801 22.8225 23.3024C23.3894 21.3127 23.9563 20.2216 24.5232 19.0984C24.8233 18.4886 25.1568 17.8789 25.5236 17.0445C25.5569 16.9482 29.7253 8.02661 34.6941 8.02661C35.1276 8.02661 35.5944 8.0908 35.9946 8.25126C36.6282 8.4759 37.4619 8.98938 37.8954 10.241C38.7291 12.5516 37.8621 18.1998 36.7616 23.142C37.4285 22.821 38.1622 22.6285 38.9625 22.6285C39.8295 22.6285 40.7299 22.8531 41.6303 23.3345C44.1313 24.6182 44.965 26.4154 45.0651 28.3409C45.9321 27.4102 47.0325 26.7684 48.4665 26.7684C49.1334 26.7684 49.8337 26.9288 50.534 27.2177C52.168 27.9237 53.8687 29.3999 54.2022 32.5128C56.3031 28.8864 59.0709 24.1689 59.7379 23.2703C59.8712 23.0778 60.038 22.789 60.2381 22.5001C61.1384 21.0239 62.4723 18.7774 65.0401 18.7774C65.8404 18.7774 66.6407 19.0342 67.4077 19.5156C71.6762 22.2113 69.3752 27.6669 67.341 32.5128L67.3077 32.5449C66.1405 35.369 64.6399 38.7387 63.306 41.6911C61.8387 44.9966 60.4381 48.1416 59.9046 49.6179C59.6712 50.1955 59.4711 50.8053 59.271 51.415C58.4373 53.8219 57.3702 56.8386 54.8692 61.2673C51.7345 66.8513 48.6666 69.2261 42.6641 70.7344L38.5957 76.9924C38.1622 77.6342 37.4619 78.0193 36.6949 78.0193Z" fill="white"/>
<path d="M34.6601 10.1119C34.8602 10.1119 35.0269 10.144 35.227 10.2082C37.8281 11.1067 33.1595 29.1104 32.2591 30.4903C32.0923 30.747 32.6926 31.1322 33.7597 31.5814C35.5271 26.1579 37.3279 24.6817 38.9619 24.6817C39.5288 24.6817 40.0957 24.8742 40.5959 25.131C43.297 26.5109 43.2303 28.4685 42.1966 32.6084C42.0632 33.154 41.8964 33.7316 41.7297 34.3093C42.6301 34.566 43.4971 34.8228 44.3975 35.0795C45.4979 31.068 46.6317 28.8215 48.4658 28.8215C48.8327 28.8215 49.1995 28.9178 49.633 29.0783C52.5675 30.3299 52.3008 34.0525 51.5671 37.0692C52.901 37.4222 53.7347 37.6468 53.7347 37.6468C53.7347 37.6468 60.5709 25.7728 61.5713 24.4249C62.405 23.3017 63.4054 20.8306 65.0394 20.8306C65.4063 20.8306 65.7731 20.959 66.2066 21.2157C68.9411 22.9487 67.1403 27.2169 65.2729 31.6777C62.7718 37.6789 58.9369 45.9587 57.8364 48.8149C56.7693 51.6711 55.969 54.784 52.9344 60.1754C49.8998 65.5669 47.1653 67.4603 41.2628 68.8082L36.761 75.9326L18.0865 70.124C18.0865 70.124 19.3204 61.6517 18.7201 60.8173C17.9531 59.7903 17.2528 58.4104 16.3191 56.4849C14.2849 52.1845 12.4842 44.3541 11.5838 39.9254C10.7168 35.4967 10.55 33.7316 10.6167 32.0307C10.6501 30.3299 10.5834 25.8691 14.1182 25.516C14.2182 25.516 14.3183 25.516 14.4183 25.516C16.8193 25.516 18.42 28.5648 19.3204 34.3093C20.0206 38.7701 20.4542 40.3426 21.3212 40.3426C21.4879 40.3426 21.6547 40.2784 21.8214 40.2142C23.0219 39.6045 22.1882 39.091 22.8218 33.6353C23.4554 28.2118 24.2224 26.7356 25.0227 23.9435C25.8564 21.1194 26.5567 20.4134 27.6238 17.9102C28.5575 15.4713 32.0924 10.1119 34.6601 10.1119ZM34.6601 5.84363C32.0257 5.84363 29.5246 7.35196 27.0236 10.4649C25.5896 12.1979 24.189 14.4443 23.4554 16.1773C23.1219 16.9475 22.8218 17.5251 22.5217 18.1349C21.9214 19.3223 21.2878 20.5418 20.6542 22.6919C20.5209 23.1733 20.3541 23.6226 20.2207 24.104C18.1866 21.5687 15.7522 21.1515 14.3183 21.1515C14.0848 21.1515 13.8181 21.1515 13.5846 21.1836C10.3499 21.5045 7.88225 23.5263 6.81514 26.7035C6.14819 28.629 6.11483 30.6187 6.11483 31.6777V31.8703C6.08148 33.86 6.21488 35.8497 7.18195 40.6314C7.88224 44.1936 9.78304 53.0189 12.2174 58.1858C12.951 59.7583 13.6513 61.1061 14.385 62.2614C14.3516 63.7056 14.0181 66.8827 13.6513 69.4501C13.3512 71.5039 14.6184 73.4616 16.6859 74.1034L35.3604 79.912C35.8272 80.0404 36.2608 80.1046 36.7276 80.1046C38.2282 80.1046 39.6955 79.3665 40.5292 78.0507L44.0974 72.4025C50.1999 70.7016 53.5346 67.9417 56.836 62.101C59.4371 57.5118 60.5042 54.3989 61.4046 51.9278C61.6047 51.3181 61.8381 50.7404 62.0382 50.1948C62.5717 48.7828 63.939 45.6698 65.4063 42.3644C66.7401 39.3798 68.2074 36.0102 69.4079 33.154L69.4413 33.1219C70.4417 30.747 71.4755 28.3081 71.8756 26.0295C72.2758 23.8473 72.3758 19.8679 68.6743 17.5251C67.5405 16.8191 66.34 16.4661 65.1061 16.4661C61.2712 16.4661 59.3037 19.7074 58.37 21.2799C58.2366 21.5046 58.0698 21.7934 57.9698 21.8896C57.5029 22.5315 56.1024 24.8421 54.6017 27.4095C53.6347 26.2221 52.4675 25.516 51.5004 25.0989C50.5334 24.6817 49.533 24.457 48.5325 24.457C47.7989 24.457 47.0986 24.5533 46.4984 24.7458C45.7981 23.4301 44.6309 22.2106 42.7635 21.2478C41.7297 20.7022 40.6626 20.4134 39.6288 20.3171C41.1628 12.3904 40.3958 10.3044 40.0623 9.37375C39.2954 7.22359 37.6947 6.3892 36.7943 6.06828C36.0607 5.93991 35.3604 5.84363 34.6601 5.84363Z" fill="black"/>
<path d="M36.8941 77.2169C36.7607 77.2169 36.5939 77.1849 36.4606 77.1528L17.7861 71.3441C17.1192 71.1516 16.719 70.5097 16.819 69.8679C17.3192 66.4982 17.7194 62.3904 17.586 61.3956C16.8857 60.4007 16.1854 59.117 15.185 56.999C12.8174 51.9926 10.8832 42.8143 10.3497 40.1185C9.44929 35.5936 9.3159 33.7643 9.34925 31.9672V31.7746C9.3826 29.817 9.48263 24.586 14.1179 24.1367C14.2513 24.1367 14.418 24.1046 14.5514 24.1046C18.7865 24.1046 20.1538 29.7849 20.854 34.0532C20.9207 34.5666 21.0875 35.6257 21.2876 36.6205C21.3209 35.7861 21.3876 34.7592 21.5544 33.4113C22.0879 28.9826 22.6882 27.0892 23.3218 25.0674C23.4885 24.5539 23.6552 24.0405 23.822 23.4628C24.3889 21.5373 24.9224 20.4782 25.4893 19.3871C25.7895 18.7774 26.1229 18.1355 26.4897 17.269C27.09 15.857 31.025 8.73254 34.9266 8.73254C35.2934 8.73254 35.6269 8.79673 35.9604 8.893C36.4272 9.05346 37.0275 9.43857 37.3609 10.4013C37.9945 12.1343 37.6611 15.9533 36.4272 21.7619C35.8603 24.3293 34.8933 28.2124 34.1596 30.17C36.594 31.3574 45.1642 33.9248 53.2342 36.0429C54.935 33.0904 59.7369 24.8107 60.604 23.6233C60.7707 23.3986 60.9374 23.1098 61.1375 22.7888C61.9712 21.3768 63.1384 19.4513 65.2393 19.4513C65.8728 19.4513 66.5398 19.6438 67.1734 20.061C70.8749 22.4037 68.8074 27.3459 66.8066 32.1276L66.7732 32.1597C65.6061 34.9838 64.1054 38.3214 62.8049 41.306C61.3376 44.6435 59.937 47.7885 59.3701 49.2648C59.1367 49.8424 58.9366 50.4522 58.7032 51.0619C57.8695 53.4368 56.8357 56.4213 54.368 60.7858C51.2667 66.3057 48.3989 68.52 42.3297 69.9641L38.0946 76.5751C37.8278 76.9923 37.361 77.2169 36.8941 77.2169Z" fill="white"/>
<path d="M34.8608 10.1126C35.0609 10.1126 35.2276 10.1447 35.4277 10.2089C38.0288 11.1075 33.3602 29.1111 32.4598 30.491C31.5594 31.871 53.9021 37.6476 53.9021 37.6476C53.9021 37.6476 60.7383 25.7735 61.7387 24.4256C62.5724 23.3024 63.5728 20.8313 65.2068 20.8313C65.5737 20.8313 65.9405 20.9597 66.374 21.2164C69.1085 22.9494 67.3077 27.2176 65.4403 31.6784C62.9392 37.6797 59.1043 45.9594 58.0038 48.8156C56.9367 51.6718 56.1364 54.7847 53.1018 60.1762C50.0672 65.5676 47.3327 67.4611 41.4302 68.8089L36.9284 75.9334L18.2539 70.1247C18.2539 70.1247 19.4878 61.6524 18.8875 60.818C18.1205 59.7911 17.4202 58.4111 16.4865 56.4856C14.4523 52.1852 12.6516 44.3548 11.7512 39.9261C10.8842 35.4974 10.7174 33.7323 10.7841 32.0315C10.8175 30.3306 10.7508 25.8698 14.2856 25.5168C14.3856 25.5168 14.4857 25.5168 14.5857 25.5168C16.9867 25.5168 18.5874 28.5655 19.4878 34.31C20.188 38.7708 20.6216 40.3433 21.4886 40.3433C21.6553 40.3433 21.8221 40.2791 21.9888 40.2149C23.1893 39.6052 22.3556 39.0917 22.9892 33.6361C23.6228 28.2125 24.3898 26.7363 25.1901 23.9443C26.0238 21.1202 26.7241 20.4141 27.7912 17.911C28.7583 15.472 32.2931 10.1126 34.8608 10.1126ZM34.8608 7.38477C29.4252 7.38477 25.1568 16.6915 25.1234 16.7877C24.7566 17.6221 24.4565 18.2319 24.1564 18.8095C23.5561 19.9649 22.9892 21.0881 22.389 23.1099C22.2222 23.6554 22.0555 24.1689 21.9221 24.6824C21.5553 25.8056 21.2218 26.8646 20.8883 28.373C20.6216 27.6669 20.3548 27.0251 20.0213 26.4474C18.3539 23.3987 16.0863 22.7569 14.519 22.7569C14.3189 22.7569 14.1188 22.7569 13.9188 22.7889C11.3177 23.0457 9.41688 24.6182 8.5165 27.2497C7.9496 28.9506 7.91627 30.7157 7.88292 31.7747V31.9673C7.84957 33.8607 7.98295 35.7541 8.91668 40.4075C9.45023 43.1353 11.4177 52.4741 13.8521 57.6088C14.6524 59.3097 15.386 60.7217 16.153 61.8771C16.1864 63.1607 15.8196 66.7871 15.386 69.7396C15.186 71.0554 16.0196 72.307 17.3202 72.6921L35.9946 78.5007C36.2948 78.597 36.5615 78.6291 36.8617 78.6291C37.8287 78.6291 38.7625 78.1477 39.2627 77.3133L43.1643 71.1516C49.2335 69.5791 52.3348 67.108 55.5361 61.4598C58.0705 56.9991 59.1376 53.9503 59.9713 51.5113C60.2047 50.9016 60.4048 50.2918 60.6049 49.7463C61.1718 48.3021 62.539 45.1571 64.0063 41.8516C65.3069 38.8671 66.8075 35.4974 68.008 32.6733L68.0414 32.6412C69.0418 30.2343 70.0088 27.9879 70.3757 25.8698C71.1093 21.8904 69.4086 19.9007 67.8746 18.9379C67.0076 18.3923 66.1072 18.1356 65.1735 18.1356C62.2723 18.1356 60.7383 20.6709 59.8379 22.1792C59.6712 22.468 59.5045 22.7569 59.3711 22.9173C58.5374 24.0726 54.5357 30.9403 52.4682 34.5346C45.8988 32.8017 38.8958 30.7157 35.7945 29.4962C36.7283 26.5116 37.6953 22.1792 37.6953 22.115C39.6628 13.0009 38.8625 10.7865 38.5957 10.0484C38.0288 8.508 36.9284 7.93033 36.3281 7.70569C35.8946 7.48104 35.3944 7.38477 34.8608 7.38477Z" fill="black"/>
<path d="M42.8637 51.2857C42.3969 51.2857 41.8966 51.1894 41.4631 51.0289C38.3952 49.7773 39.4623 46.6965 40.7295 43.1343C41.3298 41.4655 41.9967 39.54 42.5302 37.3256C43.8308 31.9342 45.1647 27.4413 48.6328 27.4413C49.1997 27.4413 49.7666 27.5697 50.3668 27.8264C55.5357 30.0407 53.2014 37.3256 52.401 39.7325C50.9338 44.3538 47.1655 51.2857 42.8637 51.2857Z" fill="white"/>
<path d="M48.6324 28.8219C48.9992 28.8219 49.3661 28.9182 49.7996 29.0787C53.5678 30.6833 52.0339 36.2994 51.0668 39.316C49.3661 44.5791 45.7979 49.9064 42.8633 49.9064C42.5632 49.9064 42.2964 49.8422 42.0296 49.7459C39.2618 48.6227 42.2964 44.4828 43.9304 37.6151C45.2643 32.0311 46.4648 28.8219 48.6324 28.8219ZM48.6324 26.0941C46.4315 26.0941 44.6641 27.4099 43.3969 29.9452C42.6299 31.4856 41.963 33.6036 41.1626 37.0054C40.6624 39.1556 39.9955 41.0169 39.3952 42.6857C38.7283 44.547 38.2281 46.0232 38.0947 47.4032C37.7945 50.6445 39.9621 51.8961 40.9292 52.2812C41.5294 52.5379 42.1964 52.6663 42.8633 52.6663C48.2989 52.6663 52.3673 44.4828 53.7679 40.1504C54.3015 38.5137 55.0018 36.0747 55.0351 33.732C55.1018 29.0787 52.5007 27.2815 50.9334 26.6076C50.1664 26.2546 49.3994 26.0941 48.6324 26.0941Z" fill="black"/>
<path d="M33.5269 48.1095C33.1267 48.1095 32.7266 48.0453 32.3597 47.917C27.9913 46.4086 29.692 40.7604 31.6595 34.2457C31.8595 33.6039 32.0596 32.93 32.2597 32.2239C34.0605 26.1265 36.2614 23.3024 39.1292 23.3024C39.8629 23.3024 40.6299 23.4949 41.4302 23.9121C45.1985 25.8376 44.765 28.8543 43.7312 32.8979C42.2973 38.8028 38.2289 48.1095 33.5269 48.1095Z" fill="white"/>
<path d="M39.129 24.682C39.6959 24.682 40.2628 24.8746 40.763 25.1313C43.4641 26.5113 43.3974 28.4689 42.3636 32.6088C40.8297 38.7384 36.9281 46.7614 33.4933 46.7614C33.2599 46.7614 33.0264 46.7293 32.793 46.633C29.3249 45.4456 31.4925 39.669 33.5933 32.6088C35.4941 26.3187 37.4283 24.682 39.129 24.682ZM39.129 21.9542C34.3937 21.9542 32.1594 27.6024 30.8922 31.8707C30.6921 32.5446 30.492 33.2185 30.2919 33.8604C29.3249 37.1017 28.4579 39.8937 28.2244 42.2685C27.7909 46.7934 29.9585 48.5264 31.8593 49.2004C32.3928 49.3929 32.9597 49.4892 33.5266 49.4892C36.2611 49.4892 38.7288 47.4674 41.1298 43.2954C42.7638 40.4392 44.2644 36.6845 45.1315 33.2506C45.9651 29.881 47.099 25.2918 42.0969 22.7244C41.0965 22.211 40.1294 21.9542 39.129 21.9542Z" fill="black"/>
<path d="M35.2935 76.6709C35.0601 76.6709 34.8267 76.6388 34.5932 76.5747L15.9188 70.766C14.885 70.4451 14.2514 69.4823 14.4182 68.4554C14.8517 65.3425 15.2518 61.5235 15.1851 60.3361C14.4849 59.3412 13.7846 58.0255 12.8175 56.0037C10.4165 50.9331 8.48235 41.6585 7.94879 38.9307C7.04842 34.3416 6.88169 32.4481 6.91503 30.6189V30.4263C6.94838 28.4687 7.04842 22.5638 12.4173 22.0182C12.5841 21.9861 12.7508 21.9861 12.9509 21.9861C16.9192 21.9861 18.6533 26.2543 19.4536 29.5919C19.8871 26.7357 20.3873 25.1632 20.9209 23.5265C21.0876 23.0131 21.2543 22.5317 21.4211 21.954C21.988 19.9643 22.5549 18.8732 23.1218 17.75C23.4219 17.1402 23.7554 16.5305 24.1222 15.6961C24.1555 15.5998 28.324 6.67822 33.2927 6.67822C33.7262 6.67822 34.1931 6.74239 34.5932 6.90285C35.2268 7.1275 36.0605 7.64097 36.494 8.89256C37.3277 11.2032 36.4607 16.8514 35.3602 21.7936C36.0272 21.4726 36.7608 21.2801 37.5612 21.2801C38.4282 21.2801 39.3286 21.5047 40.2289 21.9861C42.73 23.2698 43.5636 25.067 43.6637 26.9925C44.5307 26.0618 45.6312 25.42 47.0651 25.42C47.7321 25.42 48.4323 25.5804 49.1326 25.8693C50.7666 26.5753 52.4674 28.0515 52.8008 31.1644C54.9017 27.538 57.6695 22.8205 58.3365 21.9219C58.4698 21.7294 58.6366 21.4405 58.8367 21.1517C59.737 19.6755 61.0709 17.4291 63.6387 17.4291C64.439 17.4291 65.2393 17.6858 66.0063 18.1672C70.2748 20.8629 67.9738 26.3185 65.9396 31.1644L65.9063 31.1965C64.7391 34.0206 63.2385 37.3903 61.9046 40.3428C60.4374 43.6482 59.0367 46.7933 58.5032 48.2695C58.2698 48.8471 58.0697 49.4569 57.8696 50.0666C57.0359 52.4735 55.9688 55.4902 53.4678 59.9189C50.3331 65.5029 47.2652 67.8777 41.2627 69.386L37.2277 75.7402C36.7942 76.2858 36.0605 76.6709 35.2935 76.6709Z" fill="white"/>
<path d="M33.2921 8.76423C33.4921 8.76423 33.6589 8.79632 33.859 8.8605C36.4601 9.75908 31.7914 27.7627 30.8911 29.1427C30.7243 29.3994 31.3246 29.7845 32.3917 30.2338C34.1591 24.8102 35.9598 23.334 37.5939 23.334C38.1608 23.334 38.7277 23.5266 39.2279 23.7833C41.929 25.1633 41.8623 27.1209 40.8286 31.2607C40.6952 31.8063 40.5284 32.384 40.3617 32.9616C41.2621 33.2183 42.1291 33.4751 43.0295 33.7318C44.1299 29.7203 45.2637 27.4739 47.0978 27.4739C47.4647 27.4739 47.8315 27.5702 48.265 27.7306C51.1996 28.9822 50.9328 32.7049 50.1991 35.7215C51.533 36.0746 52.3667 36.2992 52.3667 36.2992C52.3667 36.2992 59.2029 24.4251 60.2033 23.0773C61.037 21.954 62.0374 19.483 63.6714 19.483C64.0382 19.483 64.4051 19.6113 64.8386 19.8681C67.573 21.601 65.7723 25.8693 63.9049 30.3301C61.4038 36.3313 57.5689 44.611 56.4684 47.4672C55.4013 50.3234 54.601 53.4363 51.5664 58.8278C48.5318 64.2193 45.7973 66.1127 39.8948 67.4606L35.393 74.585L16.7185 68.7763C16.7185 68.7763 17.9523 60.304 17.3521 59.4696C16.5851 58.4427 15.8848 57.0627 14.9511 55.1372C12.9169 50.8369 11.1161 43.0064 10.2158 38.5777C9.34873 34.149 9.18199 32.384 9.24868 30.6831C9.28203 28.9822 9.21534 24.5214 12.7501 24.1684C12.8502 24.1684 12.9502 24.1684 13.0503 24.1684C15.4513 24.1684 17.0519 27.2171 17.9523 32.9616C18.6526 37.4224 19.0861 38.9949 19.9531 38.9949C20.1199 38.9949 20.2866 38.9307 20.4534 38.8666C21.6539 38.2568 20.8202 37.7433 21.4538 32.2877C22.0874 26.8641 22.8544 25.3879 23.6547 22.5959C24.4884 19.7718 25.1887 19.0658 26.2558 16.5626C27.1562 14.1557 30.691 8.76423 33.2921 8.76423ZM33.2587 4.49597C30.6243 4.49597 28.1232 6.00431 25.6222 9.11723C24.1883 10.8502 22.7877 13.0966 22.054 14.8296C21.7206 15.5998 21.4204 16.1775 21.1203 16.7872C20.5201 17.9746 19.8865 19.1941 19.2529 21.3443C19.1195 21.8257 18.9527 22.275 18.8194 22.7563C16.7852 20.2211 14.3508 19.8039 12.9169 19.8039C12.6835 19.8039 12.4167 19.8039 12.1832 19.836C8.94856 20.1569 6.48086 22.1787 5.41375 25.3558C4.7468 27.2813 4.71346 29.271 4.71346 30.3301V30.5226C4.68012 32.5123 4.81349 34.502 5.78056 39.2837C6.48085 42.846 8.38166 51.6713 10.816 56.8381C11.5497 58.4106 12.2499 59.7585 12.9836 60.9138C12.9502 62.3579 12.6168 65.535 12.2499 68.1024C11.9498 70.1563 13.217 72.1139 15.2845 72.7557L33.959 78.5644C34.4259 78.6928 34.8594 78.757 35.3263 78.757C36.8269 78.757 38.2941 78.0188 39.1278 76.7031L42.696 71.0549C48.7985 69.354 52.1333 66.5941 55.4347 60.7533C58.0357 56.1642 59.1028 53.0512 60.0032 50.5802C60.2033 49.9704 60.4367 49.3927 60.6368 48.8472C61.1704 47.4351 62.5376 44.3222 64.0049 41.0167C65.3388 38.0322 66.8061 34.6625 68.0066 31.8063L68.0399 31.7742C69.0404 29.3994 70.0741 26.9604 70.4743 24.6819C70.8744 22.4996 70.9745 18.5202 67.2729 16.1775C66.1391 15.4715 64.9386 15.1184 63.7048 15.1184C59.8699 15.1184 57.9023 18.3597 56.9686 19.9323C56.8352 20.1569 56.6685 20.4457 56.5685 20.542C56.1016 21.1838 54.701 23.4945 53.2004 26.0618C52.2333 24.8744 51.0662 24.1684 50.0991 23.7512C49.132 23.334 48.1316 23.1094 47.1312 23.1094C46.3975 23.1094 45.6972 23.2056 45.097 23.3982C44.3967 22.0824 43.2295 20.8629 41.3621 19.9002C40.3283 19.3546 39.2612 19.0658 38.2275 18.9695C39.7614 11.0428 38.9944 8.95677 38.661 8.0261C37.894 5.87593 36.2933 5.04154 35.393 4.72062C34.6593 4.59225 33.9924 4.49597 33.2587 4.49597Z" fill="black"/>
<path d="M35.4937 75.9015C35.3603 75.9015 35.1936 75.8694 35.0602 75.8373L16.3857 70.0286C15.7188 69.8361 15.3186 69.1942 15.4186 68.5524C15.9189 65.1827 16.319 61.075 16.1856 60.0801C15.4853 59.0853 14.785 57.8016 13.7846 55.6835C11.417 50.6771 9.48283 41.4988 8.94928 38.8031C8.0489 34.2781 7.91551 32.4489 7.94886 30.6517V30.4592C7.98221 28.5016 8.08226 23.2706 12.7175 22.8213C12.8509 22.8213 13.0177 22.7892 13.151 22.7892C17.3861 22.7892 18.7534 28.4695 19.4537 32.7377C19.5204 33.2512 19.6871 34.3102 19.8872 35.3051C19.9205 34.4707 19.9872 33.4437 20.154 32.0959C20.6875 27.6672 21.2878 25.7737 21.9214 23.7519C22.0881 23.2385 22.2548 22.725 22.4216 22.1473C22.9885 20.2218 23.522 19.1628 24.0889 18.0717C24.3891 17.4619 24.7225 16.8201 25.0893 15.9536C25.6896 14.5415 29.6246 7.41711 33.5262 7.41711C33.893 7.41711 34.2265 7.4813 34.56 7.57757C35.0268 7.73803 35.6271 8.12314 35.9605 9.0859C36.5941 10.8189 36.2607 14.6378 35.0268 20.4465C34.4599 23.0138 33.4929 26.897 32.7592 28.8546C35.1936 30.042 43.7638 32.6093 51.8338 34.7274C53.5346 31.7749 58.3366 23.4952 59.2036 22.3078C59.3703 22.0832 59.5371 21.7943 59.7371 21.4734C60.5708 20.0614 61.738 18.1358 63.8388 18.1358C64.4724 18.1358 65.1394 18.3284 65.773 18.7456C69.4745 21.0883 67.407 26.0305 65.4062 30.8122L65.3728 30.8443C64.2057 33.6684 62.705 37.006 61.4045 39.9905C59.9372 43.3281 58.5366 46.4731 57.9697 47.9493C57.7363 48.527 57.5362 49.1367 57.3028 49.7465C56.4691 52.1213 55.4353 55.1059 52.9676 59.4704C49.8663 64.9902 46.9985 67.2045 40.9293 68.6487L36.7275 75.2917C36.4608 75.6447 35.9939 75.9015 35.4937 75.9015Z" fill="white"/>
<path d="M33.4922 8.7642C33.6923 8.7642 33.859 8.79629 34.0591 8.86047C36.6602 9.75905 31.9916 27.7627 31.0912 29.1426C30.1908 30.5226 52.5335 36.2992 52.5335 36.2992C52.5335 36.2992 59.3697 24.4251 60.3701 23.0772C61.2038 21.954 62.2041 19.4829 63.8382 19.4829C64.205 19.4829 64.5718 19.6113 65.0053 19.868C67.7398 21.601 65.9391 25.8692 64.0716 30.33C61.5706 36.3312 57.7356 44.611 56.6352 47.4672C55.5681 50.3234 54.7677 53.4363 51.7331 58.8278C48.6985 64.2192 45.9641 66.1126 40.0616 67.4605L35.5597 74.5849L16.8853 68.7763C16.8853 68.7763 18.1191 60.304 17.5189 59.4696C16.7519 58.4426 16.0516 57.0627 15.1179 55.1372C13.0837 50.8368 11.2829 43.0064 10.3826 38.5777C9.51553 34.149 9.34879 32.3839 9.41548 30.683C9.44883 28.9822 9.38213 24.5214 12.9169 24.1684C13.017 24.1684 13.117 24.1684 13.2171 24.1684C15.6181 24.1684 17.2187 27.2171 18.1191 32.9616C18.8194 37.4224 19.2529 38.9949 20.1199 38.9949C20.2867 38.9949 20.4534 38.9307 20.6201 38.8665C21.8206 38.2568 20.987 37.7433 21.6206 32.2876C22.2542 26.8641 23.0212 25.3879 23.8215 22.5959C24.6552 19.7718 25.3555 19.0657 26.4226 16.5626C27.3563 14.1557 30.8911 8.7642 33.4922 8.7642ZM33.4922 6.03638C28.0566 6.03638 23.7881 15.3431 23.7548 15.4393C23.388 16.2737 23.0878 16.8835 22.7877 17.4611C22.1875 18.6164 21.6206 19.7397 21.0203 21.7615C20.8536 22.307 20.6869 22.8205 20.5535 23.334C20.1866 24.4572 19.8532 25.5162 19.5197 27.0245C19.2529 26.3185 18.9861 25.6767 18.6527 25.099C16.9853 22.0503 14.7177 21.4084 13.1504 21.4084C12.9503 21.4084 12.7502 21.4085 12.5501 21.4405C9.94904 21.6973 8.04825 23.2698 7.14787 25.9013C6.58097 27.6022 6.54761 29.3673 6.51427 30.4263V30.6189C6.48092 32.5123 6.61432 34.4057 7.54804 39.0591C8.0816 41.7869 10.0491 51.1257 12.4834 56.2604C13.2838 57.9613 14.0174 59.3733 14.7844 60.5286C14.8177 61.8123 14.4509 65.4387 14.0174 68.3912C13.8173 69.7069 14.651 70.9585 15.9515 71.3436L34.626 77.1523C34.9261 77.2486 35.1929 77.2807 35.493 77.2807C36.4601 77.2807 37.3938 76.7993 37.894 75.9649L41.7956 69.8032C47.8648 68.2307 50.9661 65.7596 54.1675 60.1114C56.7019 55.6506 57.769 52.6019 58.6027 50.1629C58.8361 49.5532 59.0362 48.9434 59.2363 48.3978C59.8032 46.9537 61.1704 43.8087 62.6377 40.5032C63.9382 37.5186 65.4388 34.149 66.6393 31.3249L66.6727 31.2928C67.6731 28.8859 68.6402 26.6394 69.007 24.5214C69.7406 20.542 68.0399 18.5523 66.5059 17.5895C65.6389 17.0439 64.7385 16.7872 63.8048 16.7872C60.9036 16.7872 59.3696 19.3225 58.4693 20.8308C58.3025 21.1196 58.1358 21.4084 58.0024 21.5689C57.1687 22.7242 53.1671 29.5919 51.0995 33.1862C44.5301 31.4533 37.5272 29.3673 34.4259 28.1478C35.3596 25.1632 36.3267 20.8308 36.3267 20.7666C38.2942 11.6525 37.4939 9.43813 37.2271 8.70001C36.6602 7.15959 35.5597 6.58194 34.9595 6.3573C34.4926 6.13265 33.9924 6.03638 33.4922 6.03638Z" fill="black"/>
<path d="M41.4638 49.9385C40.9969 49.9385 40.4968 49.8422 40.0632 49.6818C36.9953 48.4302 38.0624 45.3493 39.3296 41.7871C39.9298 40.1183 40.5968 38.1928 41.1303 35.9785C42.4309 30.587 43.7648 26.0941 47.2329 26.0941C47.7998 26.0941 48.3667 26.2225 48.9669 26.4792C54.1358 28.6936 51.8015 35.9785 51.0011 38.3854C49.5339 43.0387 45.7656 49.9385 41.4638 49.9385Z" fill="white"/>
<path d="M47.2657 27.4737C47.6325 27.4737 47.9994 27.5699 48.4329 27.7304C52.2011 29.335 50.6672 34.9511 49.7001 37.9678C47.9994 43.2309 44.4312 48.5581 41.4966 48.5581C41.1965 48.5581 40.9297 48.4939 40.663 48.3977C37.8951 47.2745 40.9297 43.1346 42.5638 36.2669C43.8643 30.6829 45.0648 27.4737 47.2657 27.4737ZM47.2657 24.7458C45.0648 24.7458 43.2974 26.0616 42.0302 28.5969C41.2632 30.1373 40.5962 32.2554 39.7959 35.6571C39.2957 37.8073 38.6288 39.6686 38.0285 41.3374C37.3616 43.1988 36.8614 44.675 36.728 46.0549C36.4278 49.2962 38.5954 50.5478 39.5625 50.9329C40.1627 51.1897 40.8297 51.318 41.4966 51.318C46.9323 51.318 51.0006 43.1346 52.4012 38.8021C52.9348 37.1655 53.6351 34.7265 53.6684 32.3837C53.7351 27.7304 51.134 25.9332 49.5667 25.2593C48.7664 24.9063 47.9994 24.7458 47.2657 24.7458Z" fill="black"/>
<path d="M32.126 46.7936C31.7259 46.7936 31.3257 46.7294 30.9589 46.601C26.5904 45.0927 28.2911 39.4445 30.2586 32.9298C30.4587 32.288 30.6587 31.6141 30.8588 30.908C32.6596 24.8106 34.8605 21.9865 37.7284 21.9865C38.462 21.9865 39.229 22.179 40.0293 22.5962C43.7976 24.5217 43.3641 27.5384 42.3303 31.582C40.8964 37.4548 36.828 46.7936 32.126 46.7936Z" fill="white"/>
<path d="M37.7281 23.3339C38.295 23.3339 38.8619 23.5265 39.3621 23.7832C42.0632 25.1632 41.9965 27.1208 40.9628 31.2606C39.4288 37.3902 35.5272 45.4132 32.0924 45.4132C31.859 45.4132 31.6256 45.3811 31.3921 45.2849C27.924 44.0975 30.0916 38.3209 32.1924 31.2606C34.0932 25.0027 36.0274 23.3339 37.7281 23.3339ZM37.7281 20.6061C32.9928 20.6061 30.7585 26.2543 29.4913 30.5225C29.2912 31.1965 29.0912 31.8704 28.8911 32.5122C27.924 35.7535 27.057 38.5455 26.8236 40.9203C26.39 45.4453 28.5576 47.1783 30.4584 47.8522C30.9919 48.0448 31.5588 48.141 32.1257 48.141C34.8602 48.141 37.3279 46.1192 39.7289 41.9473C41.3629 39.0911 42.8636 35.3363 43.7306 31.9025C44.5643 28.5328 45.6981 23.9437 40.696 21.3763C39.6956 20.8628 38.7285 20.6061 37.7281 20.6061Z" fill="black"/>
<path d="M33.9263 75.3237C33.6929 75.3237 33.4595 75.2916 33.2261 75.2274L14.5516 69.4188C13.5178 69.0979 12.8842 68.1351 13.051 67.1082C13.4845 63.9952 13.8847 60.1763 13.818 58.9889C13.1177 57.994 12.4174 56.6783 11.4503 54.6565C9.04929 49.5859 7.11516 40.3113 6.5816 37.5835C5.68123 32.9944 5.5145 31.1009 5.54785 29.2717V29.0791C5.58119 27.1215 5.68124 21.2166 11.0501 20.671C11.2169 20.6389 11.3836 20.6389 11.5837 20.6389C15.552 20.6389 17.2861 24.9072 18.0864 28.2447C18.5199 25.3885 19.0201 23.8161 19.5537 22.1794C19.7204 21.6659 19.8872 21.1845 20.0539 20.6068C20.6208 18.6171 21.1877 17.526 21.7546 16.4028C22.0547 15.793 22.3882 15.1833 22.755 14.3489C22.7884 14.2526 26.9568 5.33105 31.9255 5.33105C32.359 5.33105 32.8259 5.39524 33.2261 5.5557C33.8597 5.78035 34.6933 6.2938 35.1268 7.54539C35.9605 9.85602 35.0935 15.5042 33.993 20.4464C34.66 20.1255 35.3936 19.9329 36.194 19.9329C37.061 19.9329 37.9614 20.1576 38.8617 20.6389C41.3628 21.9226 42.1965 23.7198 42.2965 25.6453C43.1635 24.7146 44.264 24.0728 45.6979 24.0728C46.3649 24.0728 47.0652 24.2332 47.7655 24.5221C49.3995 25.2281 51.1002 26.7043 51.4337 29.8173C53.5345 26.1909 56.3023 21.4733 56.9693 20.5748C57.1027 20.3822 57.2694 20.0934 57.4695 19.8045C58.3699 18.3283 59.7038 16.0819 62.2715 16.0819C63.0718 16.0819 63.8722 16.3386 64.6392 16.82C68.9076 19.5157 66.6067 24.9714 64.5725 29.8173L64.5391 29.8493C63.372 32.6734 61.8714 36.0431 60.5375 38.9956C59.0702 42.301 57.6696 45.4461 57.136 46.9223C56.9026 47.4999 56.7025 48.1097 56.5024 48.7195C55.6687 51.1264 54.6016 54.143 52.1006 58.5717C48.966 64.1557 45.898 66.5305 39.8955 68.0388L35.8605 74.3931C35.3936 74.9707 34.66 75.3237 33.9263 75.3237Z" fill="white"/>
<path d="M31.8925 7.41655C32.0926 7.41655 32.2593 7.44864 32.4594 7.51282C35.0605 8.4114 30.3919 26.415 29.4915 27.795C29.3248 28.0517 29.925 28.4368 30.9921 28.8861C32.7595 23.4626 34.5603 21.9863 36.1943 21.9863C36.7612 21.9863 37.3281 22.1789 37.8283 22.4356C40.5294 23.8156 40.4627 25.7732 39.429 29.9131C39.2956 30.4586 39.1288 31.0363 38.9621 31.6139C39.8625 31.8707 40.7295 32.1274 41.6299 32.3842C42.7303 28.3726 43.8642 26.1262 45.6983 26.1262C46.0651 26.1262 46.4319 26.2225 46.8654 26.3829C49.8 27.6345 49.5332 31.3572 48.7995 34.3739C50.1334 34.7269 50.9671 34.9515 50.9671 34.9515C50.9671 34.9515 57.8033 23.0775 58.8037 21.7296C59.6374 20.6064 60.6378 18.1353 62.2718 18.1353C62.6387 18.1353 63.0055 18.2637 63.439 18.5204C66.1735 20.2534 64.3727 24.5216 62.5053 28.9824C60.0042 34.9836 56.1693 43.2633 55.0688 46.1195C54.0017 48.9757 53.2014 52.0887 50.1668 57.4801C47.1322 62.8716 44.3977 64.765 38.4953 66.1129L33.9934 73.2373L15.3189 67.4287C15.3189 67.4287 16.5528 58.9564 15.9525 58.122C15.1855 57.095 14.4852 55.7151 13.5515 53.7895C11.5173 49.4892 9.71659 41.6587 8.81621 37.23C7.94918 32.8013 7.78244 31.0363 7.84913 29.3354C7.88248 27.6345 7.81578 23.1737 11.3506 22.8207C11.4506 22.8207 11.5507 22.8207 11.6507 22.8207C14.0517 22.8207 15.6524 25.8695 16.5528 31.6139C17.2531 36.0747 17.6866 37.6473 18.5536 37.6473C18.7203 37.6473 18.8871 37.5831 19.0538 37.5189C20.2543 36.9091 19.4206 36.3957 20.0542 30.94C20.6878 25.5165 21.4548 24.0402 22.2551 21.2482C23.0888 18.4241 23.7891 17.7181 24.8562 15.2149C25.7566 12.808 29.2914 7.41655 31.8925 7.41655ZM31.8925 3.14832C29.2581 3.14832 26.757 4.65663 24.256 7.76956C22.8221 9.50253 21.4215 11.749 20.6878 13.4819C20.3543 14.2521 20.0542 14.8298 19.7541 15.4396C19.1539 16.627 18.5203 17.8465 17.8867 19.9966C17.7533 20.478 17.5865 20.9273 17.4531 21.4087C15.419 18.8734 12.9846 18.4562 11.5507 18.4562C11.3173 18.4562 11.0505 18.4562 10.817 18.4883C7.58236 18.8092 5.11467 20.831 4.04756 24.0081C3.38061 25.9337 3.34725 27.9234 3.34725 28.9824V29.1749C3.31391 31.1647 3.4473 33.1544 4.41437 37.9361C5.11466 41.4983 7.01545 50.3236 9.4498 55.4904C10.1834 57.0629 10.8837 58.4108 11.6174 59.5661C11.584 61.0103 11.2506 64.1874 10.8837 66.7547C10.5836 68.8086 11.8508 70.7662 13.9183 71.4081L32.5928 77.2167C33.0597 77.3451 33.4932 77.4093 33.96 77.4093C35.4606 77.4093 36.9279 76.6712 37.7616 75.3554L41.3298 69.7072C47.4323 68.0063 50.767 65.2464 54.0684 59.4056C56.6695 54.8165 57.7366 51.7036 58.637 49.2325C58.8371 48.6227 59.0705 48.0451 59.2706 47.4995C59.8041 46.0874 61.1714 42.9745 62.6386 39.669C63.9725 36.6845 65.4398 33.3148 66.6403 30.4586L66.6737 30.4265C67.6741 28.0517 68.7079 25.6127 69.108 23.3342C69.5082 21.1519 69.6082 17.1725 65.9067 14.8298C64.7729 14.1238 63.5724 13.7708 62.3385 13.7708C58.5036 13.7708 56.5361 17.0121 55.6024 18.5846C55.469 18.8092 55.3023 19.0981 55.2022 19.1943C54.7354 19.8362 53.3348 22.1468 51.8342 24.7141C50.8671 23.5267 49.6999 22.8207 48.7329 22.4035C47.7658 21.9863 46.7654 21.7617 45.765 21.7617C45.0313 21.7617 44.331 21.858 43.7308 22.0505C43.0305 20.7347 41.8633 19.5153 39.9959 18.5525C38.9621 18.0069 37.895 17.7181 36.8612 17.6218C38.3952 9.69508 37.6282 7.60911 37.2947 6.67844C36.5278 4.52827 34.9271 3.69386 34.0267 3.37294C33.2931 3.27667 32.5928 3.14832 31.8925 3.14832Z" fill="black"/>
<path d="M34.1265 74.5534C33.9931 74.5534 33.8264 74.5213 33.693 74.4892L15.0185 68.6805C14.3516 68.488 13.9514 67.8461 14.0515 67.2043C14.5517 63.8346 14.9518 59.7268 14.8184 58.732C14.1182 57.7371 13.4179 56.4535 12.4174 54.3354C10.0498 49.329 8.11564 40.1507 7.58209 37.455C6.68171 32.93 6.54832 31.1008 6.58167 29.3036V29.111C6.61502 27.1534 6.71506 21.9224 11.3503 21.4731C11.4837 21.4731 11.6504 21.4411 11.7838 21.4411C16.0189 21.4411 17.3862 27.1213 18.0865 31.3896C18.1532 31.9031 18.3199 32.9621 18.52 33.9569C18.5533 33.1226 18.62 32.0956 18.7868 30.7477C19.3203 26.319 19.9206 24.4256 20.5542 22.4038C20.7209 21.8903 20.8876 21.3769 21.0544 20.7992C21.6213 18.8737 22.1548 17.8147 22.7217 16.7235C23.0219 16.1138 23.3553 15.4719 23.7222 14.6054C24.3224 13.1934 28.2574 6.06897 32.159 6.06897C32.5258 6.06897 32.8593 6.13315 33.1928 6.22943C33.6596 6.38989 34.2599 6.775 34.5934 7.73776C35.2269 9.47073 34.8935 13.2897 33.6596 19.0983C33.0927 21.6657 32.1257 25.5488 31.392 27.5064C33.8264 28.6938 42.3966 31.2612 50.4666 33.3793C52.1673 30.4268 56.9693 22.1471 57.8364 20.9597C58.0031 20.735 58.1699 20.4462 58.3699 20.1253C59.2036 18.7132 60.3708 16.7877 62.4716 16.7877C63.1052 16.7877 63.7722 16.9803 64.4058 17.3975C68.1073 19.7402 66.0398 24.6824 64.039 29.4641L64.0056 29.4961C62.8384 32.3202 61.3379 35.6578 60.0373 38.6424C58.57 41.9799 57.1694 45.125 56.6025 46.6012C56.3691 47.1789 56.169 47.7886 55.9356 48.3984C55.1019 50.7732 54.0681 53.7577 51.6004 58.1222C48.4991 63.6421 45.6313 65.8564 39.5621 67.3006L35.3603 73.9436C35.0602 74.3287 34.5933 74.5534 34.1265 74.5534Z" fill="white"/>
<path d="M32.0923 7.4162C32.2924 7.4162 32.4591 7.44829 32.6592 7.51247C35.2603 8.41105 30.5917 26.4147 29.6913 27.7946C28.7576 29.1746 51.1002 34.9512 51.1002 34.9512C51.1002 34.9512 57.9364 23.0771 58.9368 21.7292C59.7705 20.606 60.7709 18.1349 62.4049 18.1349C62.7717 18.1349 63.1386 18.2633 63.5721 18.52C66.3065 20.253 64.5058 24.5213 62.6383 28.982C60.1373 34.9833 56.3024 43.263 55.2019 46.1192C54.1348 48.9754 53.3345 52.0883 50.2999 57.4798C47.2653 62.8712 44.5308 64.7647 38.6283 66.1125L34.1265 73.237L15.4187 67.3641C15.4187 67.3641 16.6525 58.8918 16.0523 58.0574C15.2853 57.0305 14.585 55.6505 13.6513 53.725C11.6171 49.4247 9.81633 41.5942 8.91596 37.1655C8.04893 32.7368 7.88218 30.9717 7.94888 29.2709C7.98223 27.57 7.91553 23.1092 11.4503 22.7562C11.5504 22.7562 11.6504 22.7562 11.7505 22.7562C14.1515 22.7562 15.7521 25.8049 16.6525 31.5494C17.3528 36.0102 17.7863 37.5827 18.6534 37.5827C18.8201 37.5827 18.9868 37.5185 19.1536 37.4543C20.3541 36.8446 19.5204 36.3311 20.154 30.8755C20.7876 25.4519 21.5546 23.9757 22.3549 21.1837C23.1886 18.3596 23.8889 17.6535 24.956 15.1504C25.9897 12.8077 29.4912 7.4162 32.0923 7.4162ZM32.0923 4.72046C26.6567 4.72046 22.3882 14.0271 22.3549 14.1234C21.9881 14.9578 21.688 15.5676 21.3878 16.1452C20.7876 17.3005 20.2207 18.4238 19.6204 20.4456C19.4537 20.9911 19.2869 21.5046 19.1536 22.0181C18.7867 23.1413 18.4533 24.2003 18.1198 25.7087C17.853 25.0026 17.5862 24.3608 17.2528 23.7831C15.5854 20.7344 13.3178 20.0926 11.7505 20.0926C11.5504 20.0926 11.3503 20.0925 11.1502 20.1246C8.54914 20.3814 6.64834 21.9539 5.74797 24.5854C5.18107 26.2863 5.14771 28.0514 5.11436 29.1104V29.303C5.08102 31.1964 5.21442 33.0898 6.14814 37.7432C6.6817 40.471 8.64918 49.8098 11.0835 54.9445C11.8839 56.6454 12.6175 58.0574 13.3845 59.2127C13.4178 60.4964 13.051 64.1228 12.6175 67.0753C12.4174 68.3911 13.2511 69.6426 14.5516 70.0277L33.2261 75.8364C33.5262 75.9327 33.793 75.9648 34.0931 75.9648C35.0602 75.9648 35.9939 75.4834 36.4941 74.649L40.3957 68.4873C46.4649 66.9148 49.5662 64.4437 52.7676 58.7955C55.302 54.3347 56.3691 51.286 57.2028 48.847C57.4362 48.2373 57.6362 47.6275 57.8363 47.0819C58.4032 45.6378 59.7705 42.4928 61.2378 39.1873C62.5383 36.2028 64.0389 32.8331 65.2394 30.009L65.2728 29.9769C66.2732 27.57 67.2403 25.3236 67.6071 23.2055C68.3407 19.2261 66.64 17.2364 65.106 16.2736C64.239 15.728 63.3386 15.4713 62.4049 15.4713C59.5037 15.4713 57.9697 18.0066 57.0694 19.5149C56.9026 19.8037 56.7359 20.0926 56.6025 20.253C55.7688 21.4083 51.7671 28.276 49.6996 31.8703C43.1302 30.1374 36.1273 28.0514 33.026 26.8319C33.9597 23.8473 34.9268 19.5149 34.9268 19.4507C36.8943 10.3366 36.094 8.12221 35.8272 7.38409C35.2603 5.84368 34.1598 5.26602 33.5596 5.04138C33.1261 4.78464 32.5925 4.72046 32.0923 4.72046Z" fill="black"/>
<path d="M40.0966 48.6226C39.6298 48.6226 39.1629 48.5263 38.696 48.3658C35.6281 47.1142 36.6952 44.0334 37.9624 40.4712C38.5627 38.8024 39.2296 36.8769 39.7632 34.6625C41.0637 29.2711 42.3976 24.7782 45.8657 24.7782C46.4326 24.7782 46.9995 24.9066 47.5998 25.1633C52.7686 27.3777 50.4343 34.6625 49.6339 37.0694C48.1333 41.6907 44.3651 48.6226 40.0966 48.6226Z" fill="white"/>
<path d="M45.8653 26.1255C46.2321 26.1255 46.5989 26.2218 47.0324 26.3823C50.8007 27.9869 49.2667 33.603 48.2996 36.6196C46.5989 41.8827 43.0308 47.21 40.0962 47.21C39.7961 47.21 39.5293 47.1458 39.2625 47.0495C36.4947 45.9263 39.5293 41.7865 41.1633 34.9188C42.4639 29.3668 43.6977 26.1255 45.8653 26.1255ZM45.8653 23.3977C43.6644 23.3977 41.897 24.7135 40.6298 27.2487C39.8628 28.7892 39.1959 30.9072 38.3955 34.309C37.8953 36.4592 37.2284 38.3205 36.6281 39.9893C35.9612 41.8506 35.461 43.3269 35.3276 44.7068C35.0275 47.9481 37.195 49.1997 38.1621 49.5848C38.7623 49.8415 39.4293 49.9699 40.0962 49.9699C45.5318 49.9699 49.6002 41.7864 51.0008 37.454C51.5343 35.8173 52.2346 33.3783 52.268 31.0356C52.3347 26.3823 49.7336 24.5851 48.1663 23.9112C47.3993 23.5902 46.6323 23.3977 45.8653 23.3977Z" fill="black"/>
<path d="M30.7578 45.4457C30.3577 45.4457 29.9575 45.3815 29.5907 45.2531C25.2222 43.7448 26.9229 38.0966 28.8904 31.5819C29.0905 30.9401 29.2906 30.2662 29.4907 29.5601C31.2914 23.4626 33.4923 20.6385 36.3602 20.6385C37.0938 20.6385 37.8608 20.8311 38.6611 21.2483C42.4294 23.1738 41.9958 26.1905 40.9621 30.2341C39.4948 36.1069 35.4264 45.4457 30.7578 45.4457Z" fill="white"/>
<path d="M36.3609 21.9864C36.9278 21.9864 37.4947 22.1789 37.995 22.4357C40.6961 23.8156 40.6294 25.7732 39.5956 29.9131C38.0616 36.0427 34.16 44.0657 30.7252 44.0657C30.4918 44.0657 30.2584 44.0336 30.0249 43.9373C26.5568 42.7499 28.7244 36.9733 30.8253 29.9131C32.6927 23.6552 34.6269 21.9864 36.3609 21.9864ZM36.3609 19.2585C31.6256 19.2585 29.3913 24.9067 28.1241 29.175C27.9241 29.8489 27.724 30.5229 27.5239 31.1647C26.5568 34.406 25.6898 37.198 25.4564 39.5728C25.0229 44.0978 27.1904 45.8307 29.0912 46.5047C29.6248 46.6972 30.1917 46.7935 30.7586 46.7935C33.4931 46.7935 35.9608 44.7717 38.3618 40.5997C39.9958 37.7435 41.4964 33.9888 42.3634 30.5549C43.1971 27.1853 44.3309 22.5961 39.3288 20.0288C38.2951 19.5153 37.328 19.2585 36.3609 19.2585Z" fill="black"/>
<path d="M32.5259 74.0072C32.2925 74.0072 32.0591 73.9751 31.8257 73.911L13.1512 68.1023C12.1174 67.7814 11.4838 66.8186 11.6506 65.7917C12.0841 62.6787 12.4843 58.8598 12.4176 57.6724C11.7173 56.6775 11.017 55.3618 10.0499 53.34C7.64892 48.2694 5.71477 38.9948 5.18121 36.267C4.28084 31.6778 4.11411 29.7844 4.14746 27.9552V27.7626C4.1808 25.805 4.28085 19.9001 9.64975 19.3545C9.81649 19.3224 9.98321 19.3224 10.1833 19.3224C14.1516 19.3224 15.8857 23.5907 16.686 26.9282C17.1195 24.072 17.6197 22.4995 18.1533 20.8628C18.32 20.3494 18.4868 19.868 18.6535 19.2903C19.2204 17.3006 19.7873 16.2095 20.3542 15.0863C20.6543 14.4765 20.9878 13.8668 21.3546 13.0324C21.388 12.9361 25.5564 4.01453 30.5251 4.01453C30.9586 4.01453 31.4255 4.07871 31.8257 4.23917C32.4593 4.46382 33.2929 4.97729 33.7265 6.22888C34.5601 8.53951 33.6931 14.1877 32.5926 19.1299C33.2596 18.809 33.9932 18.6164 34.7936 18.6164C35.6606 18.6164 36.561 18.841 37.4613 19.3224C39.9624 20.6061 40.7961 22.4033 40.8961 24.3288C41.7631 23.3981 42.8636 22.7563 44.2975 22.7563C44.9645 22.7563 45.6648 22.9167 46.365 23.2056C47.9991 23.9116 49.6998 25.3878 50.0332 28.5008C52.1341 24.8744 54.9019 20.1568 55.5689 19.2582C55.7023 19.0657 55.869 18.7769 56.0691 18.488C56.9695 17.0118 58.3034 14.7654 60.8711 14.7654C61.6714 14.7654 62.4718 15.0221 63.2388 15.5035C67.5072 18.1992 65.2062 23.6549 63.172 28.5008L63.1387 28.5328C61.9715 31.3569 60.4709 34.7266 59.137 37.6791C57.6698 40.9845 56.2692 44.1296 55.7356 45.6058C55.5022 46.1835 55.3021 46.7932 55.102 47.4029C54.2683 49.8098 53.2012 52.8265 50.7002 57.2552C47.5655 62.8392 44.4976 65.214 38.4951 66.7223L34.4267 72.9803C33.9932 73.6221 33.2929 74.0072 32.5259 74.0072Z" fill="white"/>
<path d="M30.4916 6.10061C30.6917 6.10061 30.8585 6.13272 31.0585 6.1969C33.6596 7.09548 28.991 25.0991 28.0906 26.479C27.9239 26.7358 28.5242 27.1209 29.5913 27.5702C31.3587 22.1466 33.1594 20.6704 34.7934 20.6704C35.3603 20.6704 35.9272 20.863 36.4275 21.1197C39.1286 22.4996 39.0619 24.4573 38.0281 28.5971C37.8947 29.1427 37.728 29.7203 37.5613 30.298C38.4616 30.5547 39.3287 30.8115 40.229 31.0682C41.3295 27.0567 42.4633 24.8103 44.2974 24.8103C44.6642 24.8103 45.031 24.9065 45.4645 25.067C48.3991 26.3186 48.1323 30.0413 47.3987 33.0579C48.7326 33.4109 49.5663 33.6356 49.5663 33.6356C49.5663 33.6356 56.4025 21.7615 57.4029 20.4137C58.2366 19.2904 59.237 16.8194 60.871 16.8194C61.2378 16.8194 61.6046 16.9477 62.0382 17.2045C64.7726 18.9374 62.9719 23.2057 61.1044 27.6665C58.6034 33.6677 54.7684 41.9474 53.668 44.8036C52.6009 47.6598 51.8005 50.7727 48.7659 56.1642C45.7313 61.5556 42.9969 63.4491 37.0944 64.7969L32.5258 71.8572L13.8514 66.0485C13.8514 66.0485 15.0852 57.5762 14.485 56.7418C13.718 55.7149 13.0177 54.3349 12.084 52.4094C10.0498 48.1091 8.24901 40.2786 7.34863 35.8499C6.48161 31.4212 6.31488 29.6562 6.38158 27.9553C6.41492 26.2544 6.34823 21.7936 9.88304 21.4406C9.98308 21.4406 10.0831 21.4406 10.1832 21.4406C12.5842 21.4406 14.1848 24.4893 15.0852 30.2338C15.7855 34.6946 16.219 36.2671 17.086 36.2671C17.2528 36.2671 17.4195 36.2029 17.5862 36.1388C18.7867 35.529 17.9531 35.0155 18.5867 29.5599C19.2203 24.1363 19.9872 22.6601 20.7876 19.8681C21.6213 17.044 22.3216 16.338 23.3887 13.8348C24.3891 11.46 27.8906 6.10061 30.4916 6.10061ZM30.4916 1.80029C27.8572 1.80029 25.3562 3.30861 22.8551 6.42153C21.4212 8.1545 20.0206 10.401 19.287 12.1339C18.9535 12.9041 18.6534 13.4818 18.3532 14.0915C17.753 15.2789 17.1194 16.4984 16.4858 18.6486C16.3524 19.13 16.1857 19.5793 16.0523 20.0606C14.0181 17.5254 11.5837 17.1082 10.1498 17.1082C9.91638 17.1082 9.6496 17.1082 9.41617 17.1403C6.18148 17.4612 3.71379 19.483 2.64668 22.6601C1.97973 24.5856 1.94637 26.5753 1.94637 27.6344V27.8269C1.91303 29.8166 2.04642 31.8063 3.01349 36.588C3.71378 40.1502 5.61459 48.9756 8.04894 54.1424C8.78258 55.7149 9.48287 57.0627 10.2165 58.2181C10.1832 59.6622 9.84969 62.8393 9.48287 65.4067C9.18274 67.4606 10.4499 69.4182 12.5175 70.06L31.1919 75.8687C31.6588 75.997 32.0923 76.0612 32.5592 76.0612C34.0598 76.0612 35.5271 75.3231 36.3608 74.0073L39.9289 68.3591C46.0315 66.6582 49.3662 63.8983 52.6676 58.0576C55.2687 53.4684 56.3358 50.3555 57.2361 47.8844C57.4362 47.2747 57.6697 46.697 57.8698 46.1515C58.4033 44.7394 59.7705 41.6265 61.2378 38.321C62.5717 35.3364 64.039 31.9668 65.2395 29.1106L65.2728 29.0785C66.2732 26.7037 67.307 24.2647 67.7072 21.9862C68.1074 19.8039 68.2074 15.8245 64.5058 13.4818C63.372 12.7758 62.1715 12.4227 60.9377 12.4227C57.1027 12.4227 55.1353 15.664 54.2015 17.2365C54.0681 17.4612 53.9014 17.75 53.8014 17.8463C53.3345 18.4881 51.9339 20.7988 50.4333 23.3661C49.4662 22.1787 48.2991 21.4727 47.332 21.0555C46.3649 20.6383 45.3645 20.4137 44.3641 20.4137C43.6305 20.4137 42.9302 20.5099 42.3299 20.7025C41.6296 19.3867 40.4625 18.1672 38.595 17.2045C37.5613 16.6589 36.4941 16.3701 35.4604 16.2738C36.9943 8.34706 36.2274 6.26108 35.8939 5.33041C35.1269 3.18025 33.5262 2.34586 32.6259 2.02494C31.8922 1.92866 31.1919 1.80029 30.4916 1.80029Z" fill="black"/>
<path d="M32.7261 73.2049C32.5927 73.2049 32.426 73.1728 32.2926 73.1407L13.6181 67.332C12.9512 67.1395 12.551 66.4976 12.6511 65.8558C13.1513 62.4861 13.5514 58.3783 13.418 57.3835C12.7178 56.3886 12.0175 55.105 11.017 52.9869C8.64939 47.9805 6.71525 38.8022 6.1817 36.1065C5.28132 31.5815 5.14793 29.7523 5.18128 27.9551V27.7625C5.21463 25.8049 5.31467 20.5739 9.94993 20.1246C10.0833 20.1246 10.2501 20.0926 10.3835 20.0926C14.6186 20.0926 15.9858 25.7728 16.6861 30.0411C16.7528 30.5546 16.9195 31.6136 17.1196 32.6084C17.1529 31.774 17.2196 30.7471 17.3864 29.3992C17.9199 24.9705 18.5202 23.0771 19.1538 21.0553C19.3205 20.5418 19.4872 20.0284 19.654 19.4507C20.2209 17.5252 20.7544 16.4661 21.3213 15.375C21.6215 14.7653 21.9549 14.1234 22.3218 13.257C22.922 11.8449 26.857 4.72046 30.7586 4.72046C31.1254 4.72046 31.4589 4.78464 31.7924 4.88092C32.2592 5.04138 32.8595 5.42649 33.1929 6.38925C33.8265 8.12222 33.4931 11.9412 32.2592 17.7498C31.6923 20.3172 30.7253 24.2003 29.9916 26.1579C32.426 27.3453 40.9962 29.9127 49.0662 32.0308C50.7669 29.0783 55.5689 20.7986 56.436 19.6112C56.6027 19.3865 56.7694 19.0977 56.9695 18.7768C57.8032 17.3647 58.9704 15.4392 61.0712 15.4392C61.7048 15.4392 62.3717 15.6317 63.0053 16.0489C66.7069 18.3917 64.6394 23.3338 62.6385 28.1156L62.6052 28.1476C61.438 30.9717 59.9374 34.3093 58.6369 37.2939C57.1696 40.6314 55.769 43.7765 55.2021 45.2527C54.9687 45.8303 54.7686 46.4401 54.5352 47.0499C53.7015 49.4247 52.6677 52.4092 50.2 56.7737C47.0987 62.2936 44.2309 64.5079 38.1617 65.9521L33.9599 72.5951C33.6598 72.9802 33.193 73.2049 32.7261 73.2049Z" fill="white"/>
<path d="M30.6914 6.10038C30.8915 6.10038 31.0582 6.13249 31.2583 6.19667C33.8594 7.09525 29.1908 25.0989 28.2904 26.4788C27.39 27.8588 49.7327 33.6354 49.7327 33.6354C49.7327 33.6354 56.5689 21.7613 57.5693 20.4134C58.403 19.2902 59.4034 16.8191 61.0374 16.8191C61.4043 16.8191 61.7711 16.9475 62.2046 17.2042C64.9391 18.9372 63.1383 23.2054 61.2708 27.6662C58.7698 33.6674 54.9349 41.9472 53.8344 44.8034C52.7673 47.6596 51.967 50.7725 48.9324 56.1639C45.8978 61.5554 43.1633 63.4488 37.2608 64.7967L32.7256 71.8569L14.0511 66.0483C14.0511 66.0483 15.285 57.576 14.6847 56.7416C13.9177 55.7147 13.2174 54.3347 12.2837 52.4092C10.2495 48.1089 8.4488 40.2784 7.54842 35.8497C6.68139 31.421 6.51465 29.6559 6.58134 27.9551C6.61469 26.2542 6.54799 21.7934 10.0828 21.4404C10.1828 21.4404 10.2829 21.4404 10.3829 21.4404C12.7839 21.4404 14.3846 24.4891 15.285 30.2336C15.9853 34.6944 16.4188 36.2669 17.2858 36.2669C17.4525 36.2669 17.6193 36.2027 17.786 36.1385C18.9865 35.5288 18.1528 35.0153 18.7864 29.5597C19.42 24.1361 20.187 22.6599 20.9874 19.8679C21.821 17.0438 22.5213 16.3377 23.5884 13.8346C24.5889 11.4598 28.1237 6.10038 30.6914 6.10038ZM30.6914 3.37256C25.2558 3.37256 20.9873 12.6793 20.954 12.7755C20.5872 13.6099 20.2871 14.2197 19.9869 14.7973C19.3867 15.9526 18.8198 17.0759 18.2195 19.0976C18.0528 19.6432 17.8861 20.1567 17.7527 20.6702C17.3859 21.7934 17.0524 22.8524 16.7189 24.3608C16.4521 23.6547 16.1853 23.0129 15.8519 22.4352C14.1845 19.3865 11.9169 18.7446 10.3496 18.7446C10.1495 18.7446 9.94941 18.7446 9.74933 18.7767C7.14825 19.0335 5.24745 20.606 4.34707 23.2375C3.78017 24.9384 3.74683 26.7035 3.71349 27.7625V27.9551C3.68014 29.8485 3.81352 31.7419 4.74724 36.3953C5.2808 39.1231 7.24828 48.4618 9.68263 53.5966C10.483 55.2975 11.2166 56.7095 11.9836 57.8648C12.0169 59.1485 11.6501 62.7749 11.2166 65.7274C11.0165 67.0431 11.8502 68.2947 13.1508 68.6798L31.8252 74.4885C32.1253 74.5848 32.3921 74.6169 32.6922 74.6169C33.6593 74.6169 34.593 74.1355 35.0932 73.3011L38.9949 67.1394C45.0641 65.5669 48.1654 63.0958 51.3667 57.4476C53.9011 52.9868 54.9682 49.9381 55.8019 47.4991C56.0353 46.8893 56.2354 46.2796 56.4355 45.734C57.0024 44.2899 58.3696 41.1449 59.8369 37.8394C61.1374 34.8548 62.6381 31.4852 63.8386 28.6611L63.8719 28.629C64.8724 26.2221 65.8394 23.9756 66.2063 21.8576C66.9399 17.8782 65.2392 15.8884 63.7052 14.9257C62.8382 14.3801 61.9378 14.1234 61.0041 14.1234C58.1028 14.1234 56.5689 16.6587 55.6685 18.167C55.5018 18.4558 55.3351 18.7446 55.2017 18.9051C54.368 20.0604 50.3663 26.9281 48.2988 30.5224C41.7293 28.7895 34.7264 26.7035 31.6251 25.484C32.5588 22.4994 33.5259 18.167 33.5259 18.1028C35.4934 8.98867 34.6931 6.77433 34.4263 6.03621C33.8594 4.4958 32.7589 3.91812 32.1587 3.69348C31.7252 3.46883 31.225 3.37256 30.6914 3.37256Z" fill="black"/>
<path d="M38.6953 47.2745C38.2284 47.2745 37.7615 47.1782 37.2947 47.0177C34.2267 45.7661 35.2939 42.6853 36.561 39.1231C37.1613 37.4543 37.8282 35.5288 38.3618 33.3144C39.6623 27.923 40.9962 23.4301 44.4643 23.4301C45.0312 23.4301 45.5981 23.5584 46.1984 23.8152C51.3672 26.0295 49.0329 33.3144 48.2326 35.7213C46.7653 40.3426 42.9637 47.2745 38.6953 47.2745Z" fill="white"/>
<path d="M44.4644 24.8099C44.8313 24.8099 45.1981 24.9061 45.6316 25.0666C49.3998 26.6712 47.8659 32.2873 46.8988 35.3039C45.1981 40.567 41.6299 45.8943 38.6954 45.8943C38.3952 45.8943 38.1285 45.8301 37.8617 45.7338C35.0939 44.6106 38.1285 40.4707 39.7625 33.6031C41.0964 28.019 42.2969 24.8099 44.4644 24.8099ZM44.4644 22.082C42.2635 22.082 40.4961 23.3978 39.2289 25.9331C38.4619 27.4735 37.795 29.5916 36.9947 32.9933C36.4944 35.1435 35.8275 37.0048 35.2273 38.6736C34.5603 40.5349 34.0601 42.0112 33.9267 43.3911C33.6266 46.6324 35.7941 47.884 36.7612 48.2691C37.3615 48.5258 38.0284 48.6542 38.6954 48.6542C44.131 48.6542 48.1993 40.4708 49.5999 36.1383C50.1335 34.5016 50.8338 32.0626 50.8671 29.7199C50.9338 25.0666 48.3327 23.2694 46.7654 22.5955C45.9984 22.2425 45.2314 22.082 44.4644 22.082Z" fill="black"/>
<path d="M29.3584 44.0974C28.9583 44.0974 28.5581 44.0332 28.1913 43.9049C23.8228 42.3965 25.5235 36.7483 27.491 30.2337C27.6911 29.5918 27.8912 28.9179 28.0913 28.2119C29.892 22.1144 32.0929 19.2903 34.9608 19.2903C35.6944 19.2903 36.4614 19.4828 37.2618 19.9C41.03 21.8255 40.5965 24.8422 39.5627 28.8858C38.1288 34.7907 34.0604 44.0974 29.3584 44.0974Z" fill="white"/>
<path d="M34.9605 20.6707C35.5274 20.6707 36.0943 20.8633 36.5945 21.12C39.2957 22.4999 39.229 24.4576 38.1952 28.5974C36.6612 34.727 32.7596 42.75 29.3248 42.75C29.0914 42.75 28.858 42.7179 28.6245 42.6216C25.1564 41.4342 27.324 35.6577 29.4249 28.5974C31.3257 22.3074 33.2598 20.6707 34.9605 20.6707ZM34.9605 17.9429C30.2252 17.9429 27.9909 23.5911 26.7238 27.8593C26.5237 28.5332 26.3236 29.2072 26.1235 29.8811C25.1564 33.1224 24.2894 35.9144 24.056 38.2892C23.6225 42.8142 25.79 44.5472 27.6908 45.2211C28.2244 45.4136 28.7913 45.5099 29.3582 45.5099C32.0926 45.5099 34.5603 43.4881 36.9613 39.3162C38.5954 36.46 40.096 32.7052 40.963 29.2714C41.7967 25.9017 42.9305 21.3125 37.9284 18.7452C36.928 18.1996 35.9609 17.9429 34.9605 17.9429Z" fill="black"/>
<path d="M30.5587 1.79955C31.259 1.79955 31.9593 1.92791 32.5929 2.15255C33.2598 2.3772 34.327 2.89068 35.1273 4.04599C35.5942 4.36691 36.0944 4.78411 36.5279 5.39386C36.9947 5.71478 37.495 6.13196 37.9285 6.74171C38.6955 7.25518 39.5291 8.08957 40.0293 9.46953C40.3295 10.3039 40.9631 12.1011 39.9626 18.1986C40.5962 18.6479 41.0965 19.1292 41.4966 19.6427C41.9301 19.9636 42.3303 20.3166 42.6638 20.7017C43.164 20.5734 43.7309 20.5092 44.3311 20.5092C45.2982 20.5092 46.2986 20.7338 47.299 21.151C48.2661 21.5682 49.4333 22.2743 50.4003 23.4617C51.901 20.8943 53.3016 18.5837 53.7684 17.9418C53.8351 17.8456 54.0352 17.5246 54.1686 17.3321C55.1023 15.7596 57.0698 12.5183 60.9047 12.5183C62.1386 12.5183 63.3724 12.8713 64.4729 13.5773C65.2732 14.0587 65.8735 14.6363 66.3403 15.2461C66.9072 15.6633 67.3408 16.1126 67.7409 16.594C68.3078 17.0112 68.7413 17.4605 69.1415 17.9418C72.3762 20.3166 72.2428 24.0393 71.876 26.1253C71.4758 28.4038 70.442 30.8428 69.4416 33.2176L69.4083 33.2497C68.2078 36.1059 66.7405 39.4756 65.4066 42.4602C63.9393 45.7656 62.5721 48.8465 62.0386 50.2906C61.8385 50.8362 61.6384 51.4138 61.4049 52.0236C60.5379 54.5267 59.4374 57.6076 56.8363 62.1968C53.535 68.0375 50.2003 70.7974 44.0977 72.4983L40.5295 78.1465C39.6959 79.4302 38.2619 80.2004 36.728 80.2004C36.2611 80.2004 35.8276 80.1362 35.3607 80.0078L16.6863 74.1992C15.6525 73.8782 14.8188 73.2364 14.2852 72.402C13.7183 72.049 13.2515 71.5997 12.8847 71.0541C12.3178 70.7011 11.8509 70.2518 11.4841 69.7063C10.0502 68.8398 9.21647 67.2031 9.4499 65.5022C9.81672 62.9349 10.1502 59.7577 10.1835 58.3136C9.4499 57.1583 8.78296 55.8104 8.01597 54.2379C5.58162 49.1032 3.68083 40.2458 2.98054 36.6836C2.04682 31.9019 1.88008 29.9122 1.91342 27.9224V27.7299C1.94677 26.6709 1.98011 24.6812 2.61371 22.7556C3.71417 19.5785 6.18188 17.5567 9.38322 17.2358C9.61665 17.2037 9.88341 17.2037 10.1168 17.2037C11.5174 17.2037 13.8851 17.6209 15.8859 20.0278C15.9193 20.0599 15.9526 20.092 15.986 20.1241C16.1194 19.6748 16.2861 19.2255 16.4195 18.7441C17.0531 16.5619 17.6867 15.3424 18.2869 14.1871C18.587 13.5773 18.8872 13.0318 19.2207 12.2295C19.9543 10.4965 21.3549 8.25005 22.7888 6.51708C25.4566 3.33997 27.9576 1.79955 30.5587 1.79955ZM30.5587 0.162842C27.3907 0.162842 24.4228 1.89582 21.555 5.42594C20.0543 7.28728 18.5537 9.66209 17.7534 11.5234C17.4532 12.2615 17.1531 12.8071 16.853 13.3848C16.3528 14.3475 15.8192 15.4387 15.2523 17.0753C13.3182 15.7596 11.3841 15.5349 10.2169 15.5349C9.91677 15.5349 9.58329 15.5349 9.28316 15.567C5.38153 15.9521 2.38029 18.3911 1.0464 22.2101C0.312764 24.3602 0.279408 26.5104 0.246061 27.6657V27.8583C0.212714 29.9443 0.379446 32.0302 1.34652 36.9724C2.04681 40.5988 4.0143 49.5846 6.51534 54.8797C7.11559 56.1313 7.78254 57.4792 8.51618 58.6987C8.44948 60.1749 8.14937 62.8386 7.81589 65.2455C7.51577 67.4277 8.48284 69.5779 10.3169 70.8616C10.7171 71.3751 11.184 71.8243 11.7175 72.2094C12.1177 72.7229 12.5845 73.1722 13.1181 73.5573C13.8851 74.5843 14.9522 75.3545 16.2194 75.7396L34.8939 81.5482C35.4941 81.7408 36.1611 81.8371 36.7947 81.8371C38.9289 81.8371 40.9297 80.7459 42.0302 79.013L45.2649 73.9103C51.3674 72.0811 54.9356 69.0965 58.3704 62.9991C61.0381 58.2815 62.1386 55.1044 63.039 52.5691C63.2391 51.9594 63.4391 51.3817 63.6392 50.8682C64.1728 49.4883 65.54 46.4075 66.9739 43.1341C68.3078 40.1495 69.7751 36.7799 70.9756 33.8916L71.0089 33.8595C72.0427 31.4205 73.1098 28.8852 73.5434 26.4462C73.9769 24.1035 74.1102 19.739 70.342 16.8186C69.9418 16.3372 69.475 15.8879 68.9414 15.4707C68.5413 14.9894 68.0744 14.5401 67.5408 14.1229C66.9406 13.4169 66.207 12.775 65.3733 12.2295C63.9727 11.3309 62.4387 10.8816 60.8714 10.8816C56.036 10.8816 53.6684 14.8289 52.668 16.4977C52.6013 16.6261 52.4012 16.9149 52.3678 17.0112C52.2344 17.2037 51.8343 17.7172 50.0002 20.798C49.3999 20.3487 48.6996 19.9636 47.966 19.6427C46.7655 19.1292 45.5316 18.8725 44.3311 18.8725C43.9643 18.8725 43.6308 18.9046 43.264 18.9367C43.0973 18.7762 42.9306 18.6479 42.7305 18.4874C42.4304 18.1665 42.1302 17.8456 41.7967 17.5246C42.6304 11.7481 41.9635 9.85465 41.63 8.92398C41.1298 7.54402 40.2628 6.35662 39.129 5.55432C38.7288 5.04085 38.2619 4.59155 37.7284 4.20645C37.3282 3.69298 36.8614 3.24368 36.3278 2.85858C35.294 1.54281 34.0602 0.900974 33.1598 0.580054C32.3595 0.323318 31.4591 0.162842 30.5587 0.162842Z" fill="white"/>
</svg>
